<svg xmlns="http://www.w3.org/2000/svg" xmlns:xlink="http://www.w3.org/1999/xlink" width="500" zoomAndPan="magnify" viewBox="0 0 375 187.499995" height="250" preserveAspectRatio="xMidYMid meet" version="1.0"><defs><filter x="0%" y="0%" width="100%" height="100%" id="1611743cb5"><feColorMatrix values="0 0 0 0 1 0 0 0 0 1 0 0 0 0 1 0 0 0 1 0" color-interpolation-filters="sRGB"/></filter><g/><clipPath id="f9a1806aba"><path d="M 0.5 0 L 374.5 0 L 374.5 187 L 0.5 187 Z M 0.5 0 " clip-rule="nonzero"/></clipPath><clipPath id="e997845fdf"><path d="M 11 32 L 374.5 32 L 374.5 164 L 11 164 Z M 11 32 " clip-rule="nonzero"/></clipPath><mask id="9d3415089c"><g filter="url(#1611743cb5)"><rect x="-37.5" width="450" fill="#000000" y="-18.749999" height="224.999994" fill-opacity="0.5686"/></g></mask><clipPath id="013121e254"><rect x="0" width="364" y="0" height="132"/></clipPath></defs><g clip-path="url(#f9a1806aba)"><path fill="#ffffff" d="M 0.5 0 L 374.5 0 L 374.5 194.480469 L 0.5 194.480469 Z M 0.5 0 " fill-opacity="1" fill-rule="nonzero"/><path fill="#ffffff" d="M 0.5 0 L 374.5 0 L 374.5 187 L 0.5 187 Z M 0.5 0 " fill-opacity="1" fill-rule="nonzero"/><path fill="#ffffff" d="M 0.5 0 L 374.5 0 L 374.5 187 L 0.5 187 Z M 0.5 0 " fill-opacity="1" fill-rule="nonzero"/></g><g fill="#7957ff" fill-opacity="1"><g transform="translate(1.721796, 137.058603)"><g><path d="M 8.890625 -82.671875 L 35.453125 -82.671875 L 35.453125 -21.15625 L 77.875 -21.15625 L 77.875 0 L 8.890625 0 Z M 8.890625 -82.671875 "/></g></g></g><g fill="#7957ff" fill-opacity="1"><g transform="translate(81.870174, 137.058603)"><g><path d="M 40.015625 -64.890625 C 51.148438 -64.890625 59.898438 -62.066406 66.265625 -56.421875 C 72.640625 -50.773438 75.828125 -42.539062 75.828125 -31.71875 C 75.828125 -20.90625 72.640625 -12.675781 66.265625 -7.03125 C 59.898438 -1.382812 51.148438 1.4375 40.015625 1.4375 C 28.878906 1.4375 20.144531 -1.363281 13.8125 -6.96875 C 7.488281 -12.570312 4.328125 -20.820312 4.328125 -31.71875 C 4.328125 -42.613281 7.488281 -50.863281 13.8125 -56.46875 C 20.144531 -62.082031 28.878906 -64.890625 40.015625 -64.890625 Z M 40.015625 -48.671875 C 32.160156 -48.671875 28.234375 -44.144531 28.234375 -35.09375 L 28.234375 -28.234375 C 28.234375 -19.265625 32.160156 -14.78125 40.015625 -14.78125 C 47.953125 -14.78125 51.921875 -19.265625 51.921875 -28.234375 L 51.921875 -35.09375 C 51.921875 -44.144531 47.953125 -48.671875 40.015625 -48.671875 Z M 40.015625 -48.671875 "/></g></g></g><g fill="#7957ff" fill-opacity="1"><g transform="translate(162.018552, 137.058603)"><g><path d="M 40.015625 -64.890625 C 50.429688 -64.890625 58.863281 -62.664062 65.3125 -58.21875 C 71.757812 -53.769531 74.984375 -46.984375 74.984375 -37.859375 L 51.796875 -37.859375 C 51.796875 -45.066406 47.867188 -48.671875 40.015625 -48.671875 C 32.160156 -48.671875 28.234375 -44.144531 28.234375 -35.09375 L 28.234375 -28.234375 C 28.234375 -19.265625 32.320312 -14.78125 40.5 -14.78125 C 48.664062 -14.78125 52.75 -18.46875 52.75 -25.84375 L 74.984375 -25.84375 C 74.984375 -16.625 71.757812 -9.769531 65.3125 -5.28125 C 58.863281 -0.800781 50.429688 1.4375 40.015625 1.4375 C 28.878906 1.4375 20.144531 -1.363281 13.8125 -6.96875 C 7.488281 -12.570312 4.328125 -20.820312 4.328125 -31.71875 C 4.328125 -42.613281 7.488281 -50.863281 13.8125 -56.46875 C 20.144531 -62.082031 28.878906 -64.890625 40.015625 -64.890625 Z M 40.015625 -64.890625 "/></g></g></g><g fill="#7957ff" fill-opacity="1"><g transform="translate(242.16693, 137.058603)"><g><path d="M 38.578125 -64.890625 C 48.265625 -64.890625 56.148438 -63.265625 62.234375 -60.015625 C 68.328125 -56.773438 71.375 -51.507812 71.375 -44.21875 L 71.375 -19.46875 C 71.375 -18.101562 71.695312 -16.976562 72.34375 -16.09375 C 72.988281 -15.21875 73.953125 -14.78125 75.234375 -14.78125 L 79.546875 -14.78125 L 79.546875 -0.96875 C 79.304688 -0.800781 78.6875 -0.535156 77.6875 -0.171875 C 76.6875 0.179688 75.265625 0.535156 73.421875 0.890625 C 71.578125 1.253906 69.457031 1.4375 67.0625 1.4375 C 62.40625 1.4375 58.578125 0.738281 55.578125 -0.65625 C 52.578125 -2.0625 50.515625 -4.003906 49.390625 -6.484375 C 46.347656 -4.085938 42.941406 -2.164062 39.171875 -0.71875 C 35.410156 0.71875 31.003906 1.4375 25.953125 1.4375 C 11.054688 1.4375 3.609375 -4.488281 3.609375 -16.34375 C 3.609375 -22.507812 5.269531 -27.210938 8.59375 -30.453125 C 11.914062 -33.703125 16.703125 -35.925781 22.953125 -37.125 C 29.203125 -38.332031 37.375 -38.9375 47.46875 -38.9375 L 47.46875 -42.0625 C 47.46875 -44.539062 46.601562 -46.421875 44.875 -47.703125 C 43.15625 -48.984375 40.9375 -49.625 38.21875 -49.625 C 35.726562 -49.625 33.582031 -49.179688 31.78125 -48.296875 C 29.976562 -47.421875 29.078125 -46.023438 29.078125 -44.109375 L 29.078125 -43.625 L 5.53125 -43.625 C 5.445312 -44.019531 5.40625 -44.582031 5.40625 -45.3125 C 5.40625 -51.3125 8.269531 -56.070312 14 -59.59375 C 19.726562 -63.125 27.921875 -64.890625 38.578125 -64.890625 Z M 47.46875 -27.640625 C 40.65625 -27.640625 35.625 -26.894531 32.375 -25.40625 C 29.132812 -23.925781 27.515625 -21.945312 27.515625 -19.46875 C 27.515625 -15.457031 30.238281 -13.453125 35.6875 -13.453125 C 38.8125 -13.453125 41.554688 -14.289062 43.921875 -15.96875 C 46.285156 -17.65625 47.46875 -19.742188 47.46875 -22.234375 Z M 47.46875 -27.640625 "/></g></g></g><g fill="#7957ff" fill-opacity="1"><g transform="translate(322.315309, 137.058603)"><g><path d="M 8.046875 0 L 8.046875 -87.125 L 31.96875 -87.125 L 31.96875 0 Z M 8.046875 0 "/></g></g></g><g clip-path="url(#e997845fdf)"><g mask="url(#9d3415089c)"><g transform="matrix(1, 0, 0, 1, 11, 32)"><g clip-path="url(#013121e254)"><g fill="#00bfb2" fill-opacity="1"><g transform="translate(1.642974, 105.058603)"><g><path d="M 8.890625 -82.671875 L 35.453125 -82.671875 L 35.453125 -21.15625 L 77.875 -21.15625 L 77.875 0 L 8.890625 0 Z M 8.890625 -82.671875 "/></g></g></g><g fill="#00bfb2" fill-opacity="1"><g transform="translate(81.791352, 105.058603)"><g><path d="M 40.015625 -64.890625 C 51.148438 -64.890625 59.898438 -62.066406 66.265625 -56.421875 C 72.640625 -50.773438 75.828125 -42.539062 75.828125 -31.71875 C 75.828125 -20.90625 72.640625 -12.675781 66.265625 -7.03125 C 59.898438 -1.382812 51.148438 1.4375 40.015625 1.4375 C 28.878906 1.4375 20.144531 -1.363281 13.8125 -6.96875 C 7.488281 -12.570312 4.328125 -20.820312 4.328125 -31.71875 C 4.328125 -42.613281 7.488281 -50.863281 13.8125 -56.46875 C 20.144531 -62.082031 28.878906 -64.890625 40.015625 -64.890625 Z M 40.015625 -48.671875 C 32.160156 -48.671875 28.234375 -44.144531 28.234375 -35.09375 L 28.234375 -28.234375 C 28.234375 -19.265625 32.160156 -14.78125 40.015625 -14.78125 C 47.953125 -14.78125 51.921875 -19.265625 51.921875 -28.234375 L 51.921875 -35.09375 C 51.921875 -44.144531 47.953125 -48.671875 40.015625 -48.671875 Z M 40.015625 -48.671875 "/></g></g></g><g fill="#00bfb2" fill-opacity="1"><g transform="translate(161.939731, 105.058603)"><g><path d="M 40.015625 -64.890625 C 50.429688 -64.890625 58.863281 -62.664062 65.3125 -58.21875 C 71.757812 -53.769531 74.984375 -46.984375 74.984375 -37.859375 L 51.796875 -37.859375 C 51.796875 -45.066406 47.867188 -48.671875 40.015625 -48.671875 C 32.160156 -48.671875 28.234375 -44.144531 28.234375 -35.09375 L 28.234375 -28.234375 C 28.234375 -19.265625 32.320312 -14.78125 40.5 -14.78125 C 48.664062 -14.78125 52.75 -18.46875 52.75 -25.84375 L 74.984375 -25.84375 C 74.984375 -16.625 71.757812 -9.769531 65.3125 -5.28125 C 58.863281 -0.800781 50.429688 1.4375 40.015625 1.4375 C 28.878906 1.4375 20.144531 -1.363281 13.8125 -6.96875 C 7.488281 -12.570312 4.328125 -20.820312 4.328125 -31.71875 C 4.328125 -42.613281 7.488281 -50.863281 13.8125 -56.46875 C 20.144531 -62.082031 28.878906 -64.890625 40.015625 -64.890625 Z M 40.015625 -64.890625 "/></g></g></g><g fill="#00bfb2" fill-opacity="1"><g transform="translate(242.088109, 105.058603)"><g><path d="M 38.578125 -64.890625 C 48.265625 -64.890625 56.148438 -63.265625 62.234375 -60.015625 C 68.328125 -56.773438 71.375 -51.507812 71.375 -44.21875 L 71.375 -19.46875 C 71.375 -18.101562 71.695312 -16.976562 72.34375 -16.09375 C 72.988281 -15.21875 73.953125 -14.78125 75.234375 -14.78125 L 79.546875 -14.78125 L 79.546875 -0.96875 C 79.304688 -0.800781 78.6875 -0.535156 77.6875 -0.171875 C 76.6875 0.179688 75.265625 0.535156 73.421875 0.890625 C 71.578125 1.253906 69.457031 1.4375 67.0625 1.4375 C 62.40625 1.4375 58.578125 0.738281 55.578125 -0.65625 C 52.578125 -2.0625 50.515625 -4.003906 49.390625 -6.484375 C 46.347656 -4.085938 42.941406 -2.164062 39.171875 -0.71875 C 35.410156 0.71875 31.003906 1.4375 25.953125 1.4375 C 11.054688 1.4375 3.609375 -4.488281 3.609375 -16.34375 C 3.609375 -22.507812 5.269531 -27.210938 8.59375 -30.453125 C 11.914062 -33.703125 16.703125 -35.925781 22.953125 -37.125 C 29.203125 -38.332031 37.375 -38.9375 47.46875 -38.9375 L 47.46875 -42.0625 C 47.46875 -44.539062 46.601562 -46.421875 44.875 -47.703125 C 43.15625 -48.984375 40.9375 -49.625 38.21875 -49.625 C 35.726562 -49.625 33.582031 -49.179688 31.78125 -48.296875 C 29.976562 -47.421875 29.078125 -46.023438 29.078125 -44.109375 L 29.078125 -43.625 L 5.53125 -43.625 C 5.445312 -44.019531 5.40625 -44.582031 5.40625 -45.3125 C 5.40625 -51.3125 8.269531 -56.070312 14 -59.59375 C 19.726562 -63.125 27.921875 -64.890625 38.578125 -64.890625 Z M 47.46875 -27.640625 C 40.65625 -27.640625 35.625 -26.894531 32.375 -25.40625 C 29.132812 -23.925781 27.515625 -21.945312 27.515625 -19.46875 C 27.515625 -15.457031 30.238281 -13.453125 35.6875 -13.453125 C 38.8125 -13.453125 41.554688 -14.289062 43.921875 -15.96875 C 46.285156 -17.65625 47.46875 -19.742188 47.46875 -22.234375 Z M 47.46875 -27.640625 "/></g></g></g><g fill="#00bfb2" fill-opacity="1"><g transform="translate(322.236487, 105.058603)"><g><path d="M 8.046875 0 L 8.046875 -87.125 L 31.96875 -87.125 L 31.96875 0 Z M 8.046875 0 "/></g></g></g></g></g></g></g></svg>